<svg height="64" version="1.1" width="153" xmlns="http://www.w3.org/2000/svg" xmlns:xlink="http://www.w3.org/1999/xlink" style="overflow: hidden; position: relative; left: -0.666687px; top: -0.125px;" viewBox="145.06007253800752 136.41850183105467 270.6274274619925 113.09326610717775" preserveAspectRatio="xMinYMin" id="main_svg"><desc style="-webkit-tap-highlight-color: rgba(0, 0, 0, 0);">Created with Logotizer</desc><defs style="-webkit-tap-highlight-color: rgba(0, 0, 0, 0);"></defs><path fill="#1a1a1a" stroke="none" d="M-37.44,-31.44L-25.78,-31.44L-18.15,-11.18L-10.71,-31.44L1.1,-31.44L1.1,-30.38L-2.88,-30.38L-2.88,-1.06L1.1,-1.06L1.1,0L-14.31,0L-14.31,-1.06L-10.27,-1.06L-10.27,-28.9L-20.79,0L-21.75,0L-32.35,-28.9L-32.35,-7.2Q-32.35,-3.6,-31.39,-2.35Q-30.43,-1.06,-28.56,-1.06L-28.56,0L-37.68,0L-37.68,-1.06Q-35.62,-1.3,-34.66,-2.5Q-33.55,-3.94,-33.55,-7.39L-33.55,-26.88Q-33.55,-28.7,-34.42,-29.52Q-35.28,-30.38,-37.44,-30.38L-37.44,-31.44ZM5.52,-15.7Q5.52,-19.25,7.13,-22.82Q8.73,-26.4,12,-28.85Q16.37,-32.11,21.36,-32.11Q26.49,-32.11,30.81,-28.85Q34.08,-26.4,35.69,-22.87Q37.29,-19.34,37.29,-15.7Q37.29,-11.71,35.54,-8.23Q33.79,-4.75,30.81,-2.54Q26.64,0.67,21.36,0.67Q16.41,0.67,12,-2.54Q8.69,-4.94,7.1,-8.52Q5.52,-12.1,5.52,-15.7M14.01,-20.83L14.01,-10.51Q14.01,-6.96,15.07,-4.51Q16.85,-0.38,21.55,-0.38Q26.21,-0.38,27.74,-4.51Q28.8,-7.2,28.8,-10.51L28.8,-20.83Q28.8,-22.75,28.25,-25.08Q27.69,-27.41,26.49,-28.9Q24.62,-31.06,21.36,-31.06Q18.48,-31.06,16.32,-28.9Q14.01,-26.26,14.01,-20.83Z" transform="matrix(1.32,0,0,1.32,238.5,196.4185)" style="-webkit-tap-highlight-color: rgba(0, 0, 0, 0);" stroke-width="1"></path><path fill="#1a1a1a" stroke="none" d="M-75.12,-0.96Q-75.12,0,-77,0L-81.99,0Q-83.81,0,-83.81,-0.96Q-83.81,-1.2,-83.79,-1.3Q-83.76,-1.39,-83.62,-1.46Q-83.48,-1.54,-83.19,-1.54Q-81.7,-1.54,-81.7,-4.03L-81.7,-29.28L-82.04,-29.28L-92.5,-1.92Q-93.03,-0.53,-93.46,-0.02Q-93.89,0.48,-94.52,0.48Q-95.43,0.48,-96.15,-1.44L-106.47,-29.28L-106.85,-29.28L-106.52,-4.37Q-106.47,-1.54,-105.08,-1.54Q-104.4,-1.54,-104.4,-0.96Q-104.4,0,-106.18,0L-109.4,0Q-111.27,0,-111.27,-0.96Q-111.27,-1.54,-110.6,-1.54Q-109.11,-1.54,-109.11,-4.37L-109.11,-30.19Q-109.11,-32.64,-110.64,-32.64Q-111.22,-32.64,-111.22,-33.26Q-111.22,-34.22,-109.4,-34.22L-104.69,-34.22Q-104.12,-34.22,-103.66,-33.82Q-103.2,-33.41,-103.01,-33.02L-102.87,-32.59L-93.03,-6.29L-82.95,-33.12Q-82.56,-34.22,-81.17,-34.22L-77,-34.22Q-75.12,-34.22,-75.12,-33.26Q-75.12,-32.64,-75.8,-32.64Q-76.32,-32.64,-76.78,-31.92Q-77.24,-31.2,-77.24,-30.1L-77.24,-4.03Q-77.24,-1.54,-75.8,-1.54Q-75.12,-1.54,-75.12,-0.96ZM-49.25,-1.2Q-49.25,0,-51.03,0L-55.4,0Q-57.17,0,-57.17,-1.2Q-57.17,-1.82,-56.55,-1.82Q-56.12,-1.82,-55.88,-1.9Q-55.64,-1.97,-55.42,-2.52Q-55.2,-3.07,-55.2,-4.13L-55.2,-16.85L-65.33,-3.79Q-65.67,-3.31,-65.67,-3.07Q-65.67,-2.26,-65.45,-1.99Q-65.24,-1.73,-64.8,-1.73Q-64.13,-1.73,-64.13,-1.2Q-64.13,0,-65.91,0L-69.84,0Q-71.62,0,-71.62,-1.2Q-71.62,-1.73,-71,-1.73Q-70.56,-1.73,-70.32,-1.85Q-70.08,-1.97,-69.87,-2.52Q-69.65,-3.07,-69.65,-4.13L-69.65,-19.15Q-69.65,-20.59,-70.01,-21.07Q-70.37,-21.55,-71,-21.55Q-71.62,-21.55,-71.62,-22.18Q-71.62,-23.33,-69.89,-23.33L-65.52,-23.33Q-63.7,-23.33,-63.7,-22.18Q-63.7,-21.55,-64.37,-21.55Q-65,-21.55,-65.33,-21.1Q-65.67,-20.64,-65.67,-19.15L-65.67,-6.43L-55.49,-19.68Q-55.2,-19.97,-55.2,-20.35Q-55.2,-21.17,-55.44,-21.36Q-55.68,-21.55,-56.16,-21.55Q-56.84,-21.55,-56.84,-22.18Q-56.84,-23.33,-55.11,-23.33L-51.08,-23.33Q-49.25,-23.33,-49.25,-22.18Q-49.25,-21.55,-49.92,-21.55Q-50.31,-21.55,-50.57,-21.43Q-50.84,-21.31,-51.03,-20.76Q-51.22,-20.21,-51.22,-19.15L-51.22,-4.13Q-51.22,-3.07,-51,-2.52Q-50.79,-1.97,-50.6,-1.9Q-50.4,-1.82,-49.97,-1.82Q-49.25,-1.82,-49.25,-1.2ZM-23.09,-12Q-23.09,-6.58,-25.92,-2.98Q-28.76,0.62,-33.6,0.62Q-37.44,0.62,-39.7,-1.87L-39.7,8.64Q-39.7,9.74,-39.48,10.3Q-39.27,10.85,-39.03,10.92Q-38.79,10.99,-38.36,10.99Q-37.73,10.99,-37.73,11.62Q-37.73,12.82,-39.46,12.82L-43.88,12.82Q-45.65,12.82,-45.65,11.62Q-45.65,10.99,-45.08,10.99Q-44.64,10.99,-44.38,10.87Q-44.12,10.75,-43.9,10.2Q-43.68,9.65,-43.68,8.59L-43.68,-19.06Q-43.68,-21.55,-45.08,-21.55Q-45.6,-21.55,-45.6,-22.18Q-45.6,-22.75,-45.05,-23.04Q-44.5,-23.33,-43.88,-23.33L-40.95,-23.33Q-40.08,-23.33,-39.89,-22.63Q-39.7,-21.94,-39.7,-20.21Q-37.4,-24.1,-32.26,-24.1Q-28.13,-24.1,-25.61,-21.1Q-23.09,-18.1,-23.09,-12M-27.41,-12.53Q-27.41,-16.75,-29.02,-19.13Q-30.63,-21.5,-33.6,-21.5Q-36.53,-21.5,-38.12,-19.46Q-39.7,-17.42,-39.7,-14.59L-39.7,-7.97Q-39.7,-4.8,-38.04,-3.19Q-36.39,-1.58,-33.99,-1.58Q-30.77,-1.58,-29.09,-4.39Q-27.41,-7.2,-27.41,-12.53ZM10.32,-20.66Q10.32,-20.66,11.78,-18.95Q13.24,-17.23,13.24,-11.71Q13.24,-6.19,10.03,-2.78Q6.81,0.62,2.49,0.62Q-2.64,0.62,-5.57,-2.86Q-8.5,-6.34,-8.5,-11.86Q-8.5,-17.52,-5.31,-20.81Q-2.12,-24.1,2.3,-24.1Q7.39,-24.1,10.32,-20.66M8.97,-10.99Q8.97,-15.98,7.2,-19.01Q5.42,-22.03,2.3,-22.03Q-0.87,-22.03,-2.55,-19.61Q-4.23,-17.18,-4.23,-12.58Q-4.23,-7.58,-2.45,-4.51Q-0.68,-1.44,2.49,-1.44Q5.61,-1.44,7.29,-3.89Q8.97,-6.34,8.97,-10.99ZM39.07,-11.86Q39.07,-6.43,35.76,-2.9Q32.44,0.62,28.27,0.62Q22.75,0.62,19.94,-3.1Q17.13,-6.82,17.13,-13.49Q17.13,-21.22,18.96,-25.58Q19.58,-27.12,20.68,-28.49Q21.79,-29.86,22.84,-30.74Q23.9,-31.63,25.41,-32.52Q26.92,-33.41,27.84,-33.82Q28.75,-34.22,30.21,-34.82Q31.68,-35.42,32.01,-35.57Q33.45,-36.19,34.53,-36.74Q35.61,-37.3,35.97,-37.51Q36.33,-37.73,36.64,-37.85Q36.96,-37.97,37.29,-37.97Q37.96,-37.97,37.96,-36.58Q37.96,-34.46,35.47,-32.78Q33.84,-31.73,30.19,-30.34Q28.08,-29.52,27.16,-29.11Q26.25,-28.7,24.4,-27.5Q22.56,-26.3,21.45,-24.91Q20.16,-23.28,19.7,-21.67Q19.24,-20.06,18.96,-17.33L19.29,-17.28Q22.12,-24.14,29.04,-24.14Q33.55,-24.14,36.31,-21.1Q39.07,-18.05,39.07,-11.86M34.7,-10.99Q34.7,-15.94,33.09,-19.01Q31.48,-22.08,28.27,-22.08Q26.25,-22.08,24.84,-21.05Q23.42,-20.02,22.8,-18.36Q22.17,-16.7,21.93,-15.34Q21.69,-13.97,21.69,-12.58Q21.69,-7.49,23.37,-4.46Q25.05,-1.44,28.27,-1.44Q34.7,-1.44,34.7,-10.99ZM63.88,-22.32Q63.88,-21.55,63.31,-21.55Q62.92,-21.55,62.68,-21.46Q62.44,-21.36,62.11,-20.81Q61.77,-20.26,61.44,-19.2L55.63,-1.01Q53.61,5.42,51.64,8.88Q49.68,12.34,47.42,12.34Q46.22,12.34,45.69,11.71Q45.16,11.09,45.16,9.65Q45.16,7.1,47.04,7.1Q47.28,7.1,47.88,7.18Q48.48,7.25,49,7.25Q50.16,7.25,50.92,5.93Q51.69,4.61,51.69,3.07Q51.69,1.78,50.64,-1.01L43.96,-18.1Q43.1,-20.3,42.69,-20.93Q42.28,-21.55,41.71,-21.55Q41.13,-21.55,41.13,-22.18Q41.13,-23.33,42.91,-23.33L47.42,-23.33Q49.15,-23.33,49.15,-22.18Q49.15,-21.55,48.48,-21.55Q47.61,-21.55,47.61,-20.54Q47.61,-19.63,48.28,-17.9L54.09,-2.59L58.6,-19.1Q58.8,-19.73,58.8,-20.54Q58.8,-21.55,57.84,-21.55Q57.16,-21.55,57.16,-22.18Q57.16,-23.33,58.89,-23.33L62.11,-23.33Q63.88,-23.33,63.88,-22.32ZM85.53,-6.48Q85.53,-4.56,84.64,-3.19Q83.76,-1.82,82.29,-1.18Q80.83,-0.53,79.46,-0.26Q78.09,0,76.7,0L67.63,0Q65.85,0,65.85,-1.2Q65.85,-1.82,66.48,-1.82Q66.91,-1.82,67.15,-1.9Q67.39,-1.97,67.6,-2.52Q67.82,-3.07,67.82,-4.13L67.82,-19.15Q67.82,-20.59,67.46,-21.07Q67.1,-21.55,66.48,-21.55Q65.85,-21.55,65.85,-22.18Q65.85,-23.33,67.58,-23.33L77.23,-23.33Q84.57,-23.33,84.57,-18Q84.57,-16.8,84.16,-15.84Q83.76,-14.88,82.87,-14.18Q81.98,-13.49,81.55,-13.22Q81.12,-12.96,80.16,-12.53Q79.96,-12.43,79.87,-12.38L79.87,-12.24Q81.93,-11.95,83.73,-10.56Q85.53,-9.17,85.53,-6.48M80.49,-17.42Q80.49,-19.3,79.41,-20.21Q78.33,-21.12,76.7,-21.12L74.11,-21.12Q73.2,-21.12,72.79,-21.05Q72.38,-20.98,72.09,-20.66Q71.8,-20.35,71.8,-19.68L71.8,-13.06L76.03,-13.06Q80.49,-13.06,80.49,-17.42M81.31,-6.77Q81.31,-8.5,80.2,-9.77Q79.1,-11.04,76.41,-11.04L71.8,-11.04L71.8,-4.03Q71.8,-2.88,72.04,-2.52Q72.28,-2.16,73.1,-2.16L76.99,-2.16Q77.52,-2.16,78.09,-2.3Q78.67,-2.45,79.46,-2.86Q80.25,-3.26,80.78,-4.27Q81.31,-5.28,81.31,-6.77ZM111.45,-1.2Q111.45,0,109.68,0L105.31,0Q103.53,0,103.53,-1.2Q103.53,-1.82,104.16,-1.82Q104.59,-1.82,104.83,-1.9Q105.07,-1.97,105.28,-2.52Q105.5,-3.07,105.5,-4.13L105.5,-16.85L95.37,-3.79Q95.04,-3.31,95.04,-3.07Q95.04,-2.26,95.25,-1.99Q95.47,-1.73,95.9,-1.73Q96.57,-1.73,96.57,-1.2Q96.57,0,94.8,0L90.86,0Q89.08,0,89.08,-1.2Q89.08,-1.73,89.71,-1.73Q90.14,-1.73,90.38,-1.85Q90.62,-1.97,90.84,-2.52Q91.05,-3.07,91.05,-4.13L91.05,-19.15Q91.05,-20.59,90.69,-21.07Q90.33,-21.55,89.71,-21.55Q89.08,-21.55,89.08,-22.18Q89.08,-23.33,90.81,-23.33L95.18,-23.33Q97,-23.33,97,-22.18Q97,-21.55,96.33,-21.55Q95.71,-21.55,95.37,-21.1Q95.04,-20.64,95.04,-19.15L95.04,-6.43L105.21,-19.68Q105.5,-19.97,105.5,-20.35Q105.5,-21.17,105.26,-21.36Q105.02,-21.55,104.54,-21.55Q103.87,-21.55,103.87,-22.18Q103.87,-23.33,105.6,-23.33L109.63,-23.33Q111.45,-23.33,111.45,-22.18Q111.45,-21.55,110.78,-21.55Q110.4,-21.55,110.13,-21.43Q109.87,-21.31,109.68,-20.76Q109.48,-20.21,109.48,-19.15L109.48,-4.13Q109.48,-3.07,109.7,-2.52Q109.92,-1.97,110.11,-1.9Q110.3,-1.82,110.73,-1.82Q111.45,-1.82,111.45,-1.2Z" transform="matrix(1,0,0,1,302.5,236.8451)" style="-webkit-tap-highlight-color: rgba(0, 0, 0, 0);" stroke-width="1"></path><path fill="#1a1a1a" stroke="none" d="M107.344,75.008C100.14099999999999,75.762,93.874,76.392,88.399,76.902Q88.446,76.542,88.489,76.178C88.659,73.195,87.47800000000001,71.204,85.221,71.413C83.541,71.568,81.89500000000001,73.106,80.783,75.329A13.469,13.469,0,0,0,79.883,77.64999999999999C66.327,78.755,58.82299999999999,78.862,53.690999999999995,78.09199999999998C51.940999999999995,71.77699999999999,49.169,68.92299999999999,46.013,70.16699999999999C42.26,71.64499999999998,42.364999999999995,77.56099999999999,46.943,79.39299999999999A26.233,26.233,0,0,0,51.259,80.70299999999999Q51.691,82.701,52.012,85.18999999999998C53.535000000000004,97.11999999999998,61.202,104.54499999999999,70.07300000000001,103.36199999999998C75.28500000000001,102.66699999999999,79.87400000000001,99.17899999999997,83.22500000000001,93.40199999999999Q83.733,94.15999999999998,84.31,94.91199999999999C96.196,110.416,108.09,106.35499999999999,117.37,85.612A1.5,1.5,0,0,0,114.63000000000001,84.387C106.16300000000001,103.315,96.94500000000001,106.463,86.69000000000001,93.087A25.379,25.379,0,0,1,84.81400000000001,90.283A45.705,45.705,0,0,0,87.918,79.96000000000001C93.59800000000001,79.435,100.12200000000001,78.78,107.656,77.992C126.56400000000001,76.013,133.34,81.266,132.281,91.394A32.004,32.004,0,0,1,129.57,100.775A47.456,47.456,0,0,1,127.61,104.709A37.826,37.826,0,0,1,126.738,106.18900000000001A1.5,1.5,0,0,0,129.262,107.811C129.315,107.72800000000001,129.409,107.578,129.537,107.36600000000001C129.747,107.01800000000001,129.979,106.61800000000001,130.229,106.17100000000002A50.402,50.402,0,0,0,132.31400000000002,101.98700000000002A34.862,34.862,0,0,0,135.26500000000001,91.70700000000002C136.543,79.47900000000003,127.99000000000001,72.84700000000002,107.34400000000002,75.00800000000002ZM83.467,76.67099999999999A4.77,4.77,0,0,1,85.363,74.43199999999999A3.701,3.701,0,0,1,85.503,75.91699999999999Q85.426,76.55699999999999,85.337,77.18199999999999Q84.21900000000001,77.28199999999998,83.147,77.37499999999999Q83.29400000000001,77.01499999999999,83.467,76.67099999999999ZM46.5,73.5C48,70.5,50.5,77,50.5,77S45,76.5,46.5,73.5ZM69.67699999999999,100.388C62.623999999999995,101.328,56.31699999999999,95.22,54.986999999999995,84.81Q54.74399999999999,82.9,54.416999999999994,81.218C59.657,81.837,67.03699999999999,81.688,79.357,80.703A19.129,19.129,0,0,0,81.472,90.382C78.506,96.28800000000001,74.32,99.769,69.67699999999999,100.388ZM83.114,86.51A14.596,14.596,0,0,1,82.384,80.453Q83.574,80.35300000000001,84.819,80.242A44.866,44.866,0,0,1,83.114,86.51Z" stroke-width="0" opacity="1" transform="matrix(0,1,-1,0,253.5602,106.8256)" style="-webkit-tap-highlight-color: rgba(0, 0, 0, 0); opacity: 1;"></path></svg>